<?xml version="1.0" standalone="no"?>
<!DOCTYPE svg PUBLIC "-//W3C//DTD SVG 20010904//EN"
 "http://www.w3.org/TR/2001/REC-SVG-20010904/DTD/svg10.dtd">
<svg version="1.0" xmlns="http://www.w3.org/2000/svg"
 width="1024.000000pt" height="1024.000000pt" viewBox="0 0 1024.000000 1024.000000"
 preserveAspectRatio="xMidYMid meet">
<metadata>
Created by potrace 1.14, written by Peter Selinger 2001-2017
</metadata>
<g transform="translate(0.000000,1024.000000) scale(0.100000,-0.100000)"
fill="#000000" stroke="none">
<path d="M8067 9984 c-2 -2 -29 -6 -60 -9 -70 -5 -166 -16 -192 -22 -11 -2
-33 -6 -50 -8 -16 -3 -41 -8 -55 -11 -14 -3 -34 -7 -45 -8 -11 -1 -33 -6 -50
-9 -16 -4 -41 -10 -55 -13 -32 -7 -54 -12 -60 -14 -3 -1 -9 -3 -15 -5 -5 -1
-12 -3 -15 -4 -3 -1 -15 -4 -26 -6 -63 -12 -381 -121 -399 -136 -5 -5 -18 -9
-30 -9 -11 0 -29 -7 -39 -15 -11 -8 -28 -15 -38 -15 -10 0 -18 -4 -18 -10 0
-5 -16 -12 -35 -16 -19 -3 -35 -10 -35 -15 0 -5 -6 -9 -13 -9 -18 0 -342 -164
-455 -230 -143 -84 -279 -168 -299 -185 -7 -5 -19 -16 -27 -22 -8 -7 -19 -13
-23 -13 -5 0 -24 -13 -43 -30 -19 -16 -40 -29 -47 -30 -6 0 -13 -4 -15 -8 -1
-4 -39 -35 -83 -67 -44 -33 -89 -68 -100 -78 -11 -10 -39 -33 -62 -50 -24 -17
-43 -35 -43 -40 0 -6 -2 -8 -5 -5 -3 3 -18 -6 -33 -21 -15 -14 -65 -59 -111
-100 -145 -131 -349 -343 -431 -450 -14 -18 -30 -38 -35 -44 -14 -15 -84 -105
-108 -138 -71 -98 -127 -181 -127 -189 0 -5 -4 -11 -9 -14 -5 -3 -9 34 -10 83
-1 49 -4 100 -6 113 -3 12 -8 47 -11 77 -3 30 -8 64 -10 75 -2 12 -7 46 -10
76 -8 72 -12 105 -14 105 -1 0 -3 16 -5 35 -1 19 -6 55 -10 80 -5 25 -8 57 -9
73 -1 15 -3 27 -6 27 -3 0 -4 18 -4 40 1 22 -1 40 -5 40 -3 0 -6 12 -7 28 -1
28 -11 116 -19 167 -3 17 -7 48 -10 70 -2 22 -6 51 -9 65 -2 14 -7 48 -10 75
-10 82 -16 128 -22 165 -2 19 -7 55 -10 80 -3 25 -7 56 -9 70 -3 14 -7 50 -10
80 -4 30 -8 66 -11 80 -3 14 -7 48 -10 75 -5 57 -8 60 -144 165 -25 19 -47 37
-50 40 -3 3 -19 16 -36 28 l-31 21 -169 -45 c-93 -25 -176 -47 -185 -49 -14
-3 -219 -57 -429 -113 -36 -9 -69 -17 -75 -17 -5 0 -12 -3 -15 -7 -3 -3 -18
-8 -35 -11 -16 -3 -37 -8 -45 -11 -8 -3 -26 -8 -40 -10 -22 -5 -61 -15 -264
-71 -33 -8 -69 -17 -80 -20 -12 -2 -21 -4 -21 -5 0 -1 -7 -3 -16 -5 -9 -1 -57
-14 -105 -28 -49 -14 -102 -28 -119 -32 -16 -5 -34 -9 -40 -11 -5 -2 -22 -6
-37 -9 -15 -3 -40 -10 -55 -16 -16 -6 -29 -10 -30 -10 -2 1 -4 1 -5 0 -10 -3
-46 -11 -58 -13 -8 -1 -25 -6 -37 -10 -12 -4 -30 -9 -41 -11 -11 -2 -69 -17
-128 -33 -105 -28 -158 -43 -179 -47 -5 -2 -35 -10 -66 -19 -31 -9 -67 -19
-80 -22 -40 -9 -54 -12 -54 -14 0 -1 -7 -3 -15 -5 -8 -1 -44 -11 -80 -20 -36
-9 -72 -19 -80 -20 -8 -2 -15 -4 -15 -5 0 -2 -36 -10 -57 -12 -10 -1 -18 -6
-18 -11 0 -4 -4 -5 -10 -2 -5 3 -16 3 -22 -2 -7 -4 -17 -8 -23 -8 -5 -1 -30
-7 -55 -14 -25 -7 -52 -15 -60 -16 -8 -2 -15 -4 -15 -5 0 -1 -11 -4 -25 -6
-14 -3 -55 -14 -92 -25 -37 -10 -70 -18 -75 -17 -4 1 -18 -3 -30 -10 -13 -7
-23 -11 -23 -8 0 2 -21 -3 -48 -11 -26 -8 -58 -16 -72 -19 -14 -2 -36 -9 -50
-14 -14 -5 -36 -11 -50 -13 -14 -2 -32 -7 -40 -10 -8 -3 -87 -25 -175 -48 -88
-22 -176 -45 -195 -50 -19 -5 -45 -12 -57 -14 -12 -3 -34 -10 -49 -15 -14 -6
-29 -8 -34 -5 -5 3 -11 1 -14 -4 -6 -9 -82 -26 -89 -19 -2 1 -10 -2 -18 -9
-12 -10 -72 -25 -96 -25 -5 0 -17 -5 -28 -10 -10 -6 -26 -12 -35 -13 -17 -2
-61 -12 -108 -27 l-32 -10 0 -99 c0 -92 1 -99 20 -100 11 -1 23 -2 28 -3 18
-5 121 -27 148 -32 30 -6 34 -7 74 -17 26 -7 62 -14 115 -23 39 -7 64 -12 95
-19 14 -3 37 -7 52 -10 15 -3 38 -9 52 -15 15 -5 26 -8 26 -5 0 2 18 -2 40
-10 22 -8 41 -14 43 -14 1 0 15 -4 30 -10 16 -6 30 -11 31 -11 2 0 21 -8 42
-17 22 -9 41 -17 44 -17 3 -1 26 -13 52 -29 26 -15 49 -27 53 -27 11 0 110
-92 146 -137 65 -80 131 -264 146 -408 3 -27 7 -1490 8 -3250 2 -3039 1 -3205
-16 -3305 -42 -245 -162 -438 -347 -557 -56 -35 -212 -115 -212 -108 0 3 -20
-4 -45 -15 -25 -11 -45 -17 -45 -13 0 3 -6 0 -13 -6 -8 -6 -17 -8 -20 -4 -4 3
-7 0 -7 -7 0 -7 -3 -11 -6 -7 -3 3 -18 1 -33 -5 -25 -10 -40 -13 -91 -23 -14
-3 -40 -9 -58 -14 -18 -5 -35 -10 -37 -10 -3 -1 -6 -1 -7 -2 -2 0 -12 -2 -23
-4 -11 -1 -33 -6 -50 -9 -16 -4 -43 -9 -59 -12 -77 -15 -156 -33 -165 -39 -7
-4 -11 -44 -11 -101 l0 -94 3235 0 3235 0 0 99 0 98 -81 18 c-44 9 -86 18 -92
19 -7 2 -23 6 -37 9 -14 4 -36 9 -50 11 -14 3 -36 8 -50 11 -14 3 -36 8 -50
11 -14 3 -33 7 -42 10 -10 3 -30 8 -45 10 -16 3 -46 10 -68 15 -78 19 -108 25
-165 34 -19 3 -42 8 -50 12 -8 3 -22 7 -30 9 -26 5 -85 17 -90 19 -3 1 -25 7
-50 14 -65 18 -163 53 -176 63 -6 4 -14 5 -17 1 -4 -3 -7 0 -7 7 0 7 -3 11 -6
8 -5 -5 -48 15 -139 66 -95 53 -275 224 -275 262 0 8 -4 14 -9 14 -14 0 -76
134 -100 214 -22 72 -25 85 -37 176 -11 84 -12 5609 -1 5645 6 17 16 37 24 47
8 9 15 22 17 30 1 8 12 31 24 51 12 21 22 45 22 53 0 8 3 14 8 14 4 0 23 32
41 70 19 39 38 70 43 70 4 0 8 4 8 10 0 5 18 39 40 75 22 36 40 70 40 75 0 6
3 10 8 10 4 0 20 21 37 48 16 26 32 49 35 52 3 3 21 25 40 50 57 75 130 149
230 232 52 43 116 97 142 120 89 77 225 161 279 172 8 2 21 6 29 9 52 22 264
32 323 16 18 -4 43 -10 57 -13 29 -5 122 -38 130 -46 3 -3 28 -16 55 -30 28
-14 55 -28 60 -32 50 -37 136 -109 175 -147 26 -25 96 -91 155 -146 59 -55
115 -107 124 -115 23 -22 123 -102 155 -125 16 -11 41 -30 56 -42 15 -13 32
-23 38 -23 6 0 12 -3 14 -7 4 -11 146 -103 157 -103 5 0 11 -3 13 -7 9 -22
387 -193 425 -193 7 0 13 -4 13 -8 0 -4 8 -8 18 -9 19 -2 40 -7 62 -16 55 -24
362 -82 384 -74 7 3 17 2 22 -3 10 -10 277 -27 314 -21 3 1 50 3 105 6 55 3
114 7 130 10 17 3 48 7 70 9 22 1 49 5 60 9 11 3 36 8 56 11 20 3 49 10 65 16
16 6 31 11 34 11 6 -1 109 28 130 36 8 3 20 7 26 8 22 5 182 78 244 112 70 38
181 110 217 140 12 10 36 29 54 43 88 68 203 206 265 317 31 55 103 213 104
228 0 3 0 6 1 8 0 1 2 9 4 17 2 8 10 44 19 80 24 104 30 165 30 325 0 140 -4
208 -19 280 -12 60 -39 159 -50 185 -2 3 -6 16 -11 30 -31 97 -152 294 -241
391 -77 85 -183 182 -222 203 -9 5 -20 15 -24 23 -4 7 -12 13 -16 13 -5 0 -33
16 -62 36 -61 41 -228 123 -304 149 -27 9 -59 21 -70 25 -30 13 -97 33 -120
36 -11 2 -38 8 -60 14 -41 11 -69 17 -107 24 -13 2 -39 7 -58 11 -19 3 -46 7
-60 9 -14 2 -45 6 -70 10 -25 3 -65 9 -90 12 -54 7 -576 14 -583 8z"/>
</g>
</svg>
