<?xml version="1.0" encoding="UTF-8"?>
<svg id="Layer_1" data-name="Layer 1" xmlns="http://www.w3.org/2000/svg" viewBox="0 0 63.55 60.54">
  <defs>
    <style>
      .cls-1 {
        fill: #786aaf;
        stroke-width: 0px;
      }
    </style>
  </defs>
  <path class="cls-1" d="M0,60.54v-1.22l2.32-.49c2.07-.49,3.49-1.22,4.26-2.2s1.16-2.24,1.16-3.78V14.65c0-1.79-.39-3.11-1.16-3.97s-2.2-1.44-4.26-1.77l-2.32-.49v-1.22L26.66.12l1.55,1.22,1.4,10.5v.98c1.45-2.28,3.33-4.37,5.66-6.29,2.33-1.91,4.91-3.48,7.75-4.7C45.85.61,48.67,0,51.46,0,55.39,0,58.38.85,60.45,2.56c2.07,1.71,3.1,3.87,3.1,6.47,0,2.77-1.01,4.9-3.02,6.41-2.02,1.51-4.42,2.26-7.21,2.26-4.34,0-8.16-1.71-11.47-5.13l-.31-.24c-1.03-1.14-2.22-1.77-3.56-1.89-1.34-.12-2.58.39-3.72,1.53-1.03.73-1.89,1.61-2.56,2.62-.67,1.02-1.32,2.18-1.94,3.48v34.05c0,3.25,1.81,5.29,5.43,6.1l4.96,1.1v1.22H0Z"/>
</svg>